<svg xmlns="http://www.w3.org/2000/svg" width="1200" height="420" viewBox="0 0 1200 420"><rect width="100%" height="100%" fill="white"/><style>.t{font:700 28px Arial;fill:#111827}.s{font:15px Arial;fill:#4b5563}.b{font:700 16px Arial;fill:#111827}.d{font:14px Arial;fill:#374151}.box{stroke:#9ca3af;stroke-width:2;rx:12}.l{stroke:#64748b;stroke-width:3;marker-end:url(#a)}</style><defs><marker id="a" markerWidth="10" markerHeight="10" refX="8" refY="5" orient="auto"><path d="M0,0 L10,5 L0,10 z" fill="#64748b"/></marker></defs><text x="35" y="45" class="t">Agent-UniRAG Research — System Architecture</text><text x="35" y="72" class="s">Reproduction pipeline with controlled decomposition and cybersecurity extension</text><rect x="45" y="115" width="175" height="90" class="box" fill="#eef2ff"/><text x="132" y="150" text-anchor="middle" class="b">Question</text><text x="132" y="177" text-anchor="middle" class="d">MuSiQue / Cyber</text><rect x="275" y="115" width="190" height="90" class="box" fill="#ecfeff"/><text x="370" y="150" text-anchor="middle" class="b">UniRAG API</text><text x="370" y="177" text-anchor="middle" class="d">/retrieve/</text><rect x="520" y="115" width="190" height="90" class="box" fill="#f3f4f6"/><text x="615" y="150" text-anchor="middle" class="b">Elasticsearch</text><text x="615" y="177" text-anchor="middle" class="d">BM25 candidates</text><rect x="765" y="115" width="190" height="90" class="box" fill="#fef3c7"/><text x="860" y="150" text-anchor="middle" class="b">E5 reranker</text><text x="860" y="177" text-anchor="middle" class="d">multilingual-e5-large</text><rect x="1010" y="115" width="145" height="90" class="box" fill="#ecfdf5"/><text x="1082" y="150" text-anchor="middle" class="b">Top-k</text><text x="1082" y="177" text-anchor="middle" class="d">metrics</text><path d="M220 160H275" class="l"/><path d="M465 160H520" class="l"/><path d="M710 160H765" class="l"/><path d="M955 160H1010" class="l"/><rect x="175" y="280" width="270" height="90" class="box" fill="#f5f3ff"/><text x="310" y="315" text-anchor="middle" class="b">Controlled decomposition</text><text x="310" y="342" text-anchor="middle" class="d">gold hop subqueries</text><rect x="465" y="280" width="270" height="90" class="box" fill="#fff7ed"/><text x="600" y="315" text-anchor="middle" class="b">MITRE ATT&amp;CK extension</text><text x="600" y="342" text-anchor="middle" class="d">entities + relationship edges</text><rect x="755" y="280" width="270" height="90" class="box" fill="#f0fdf4"/><text x="890" y="315" text-anchor="middle" class="b">Research outputs</text><text x="890" y="342" text-anchor="middle" class="d">CSV + analysis + paper</text></svg>
